<?xml version="1.0" encoding="utf-8"?>
<svg height="150px" width="150px" version="1.1" id="Layer_1" viewBox="200.31 -12.08 200 200" xmlns="http://www.w3.org/2000/svg">
  <style id="style41">.st0{fill:#fff}</style>
  <path id="path43" d="M 282.922 72.453 C 277.446 72.453 273.123 77.257 273.123 83.117 C 273.123 88.977 277.542 93.78 282.922 93.78 C 288.398 93.78 292.721 88.977 292.721 83.117 C 292.817 77.257 288.398 72.453 282.922 72.453 Z M 317.987 72.453 C 312.511 72.453 308.188 77.257 308.188 83.117 C 308.188 88.977 312.607 93.78 317.987 93.78 C 323.463 93.78 327.786 88.977 327.786 83.117 C 327.786 77.257 323.463 72.453 317.987 72.453 Z" class="st0" style=""/>
  <path id="path45" d="M 364.677 -8.149 L 235.944 -8.149 C 225.088 -8.149 216.25 0.689 216.25 11.641 L 216.25 141.527 C 216.25 152.479 225.088 161.317 235.944 161.317 L 344.887 161.317 L 339.795 143.544 L 352.092 154.977 L 363.716 165.736 L 384.371 183.989 L 384.371 11.641 C 384.371 0.689 375.533 -8.149 364.677 -8.149 Z M 327.594 117.317 C 327.594 117.317 324.136 113.186 321.254 109.536 C 333.839 105.981 338.642 98.104 338.642 98.104 C 334.703 100.697 330.957 102.523 327.594 103.772 C 322.791 105.789 318.179 107.134 313.664 107.903 C 304.442 109.632 295.987 109.152 288.782 107.807 C 283.306 106.75 278.599 105.213 274.66 103.676 C 272.451 102.811 270.049 101.754 267.647 100.409 C 267.359 100.217 267.071 100.121 266.782 99.929 C 266.59 99.833 266.494 99.737 266.398 99.641 C 264.669 98.68 263.708 98.007 263.708 98.007 C 263.708 98.007 268.32 105.693 280.52 109.344 C 277.638 112.994 274.084 117.317 274.084 117.317 C 252.852 116.645 244.783 102.715 244.783 102.715 C 244.783 71.781 258.617 46.707 258.617 46.707 C 272.451 36.331 285.612 36.619 285.612 36.619 L 286.573 37.772 C 269.28 42.768 261.306 50.357 261.306 50.357 C 261.306 50.357 263.42 49.204 266.975 47.571 C 277.254 43.056 285.42 41.807 288.782 41.519 C 289.359 41.423 289.839 41.327 290.415 41.327 C 296.276 40.558 302.904 40.366 309.821 41.135 C 318.948 42.191 328.747 44.881 338.738 50.357 C 338.738 50.357 331.149 43.152 314.817 38.156 L 316.162 36.619 C 316.162 36.619 329.323 36.331 343.157 46.707 C 343.157 46.707 356.991 71.781 356.991 102.715 C 356.991 102.715 348.826 116.645 327.594 117.317 Z" class="st0" style=""/>
</svg>