<?xml version="1.0" encoding="utf-8"?>
<!-- Generator: Adobe Illustrator 16.0.0, SVG Export Plug-In . SVG Version: 6.00 Build 0)  -->
<!DOCTYPE svg PUBLIC "-//W3C//DTD SVG 1.1//EN" "http://www.w3.org/Graphics/SVG/1.1/DTD/svg11.dtd">
<svg version="1.1" id="Ebene_1" xmlns="http://www.w3.org/2000/svg" xmlns:xlink="http://www.w3.org/1999/xlink" x="0px" y="0px"
	 width="72px" height="72px" viewBox="0 0 72 72" enable-background="new 0 0 72 72" xml:space="preserve">
<path fill="#FFFFFF" d="M64,0H8C3.582,0,0,3.582,0,8v56c0,4.418,3.582,8,8,8h56c4.418,0,8-3.582,8-8V8C72,3.582,68.418,0,64,0z
	 M21.77,62H11.033V27.333H21.77V62z M16.349,22.794c-3.507,0-6.349-2.864-6.349-6.397S12.842,10,16.349,10
	c3.507,0,6.348,2.864,6.348,6.397S19.856,22.794,16.349,22.794z M62,62H51.315V43.803c0-4.99-1.896-7.778-5.845-7.778
	c-4.296,0-6.541,2.901-6.541,7.778V62H28.633V27.333H38.93v4.669c0,0,3.096-5.729,10.453-5.729c7.354,0,12.617,4.49,12.617,13.776
	V62z"/>
</svg>
